<?xml version="1.0" encoding="utf-8"?>
<svg xmlns="http://www.w3.org/2000/svg" height="32" width="32" viewBox="0 0 32 32">
  <g>
    <path id="path1" transform="rotate(0,16,16) translate(1.5040111541748,0) scale(1,1)  " fill="#FFD700" d="M11.467745,28L11.504386,28.072749C12.118885,29.227386 13.230397,30 14.496995,30 15.763593,30 16.875105,29.227386 17.489604,28.072749L17.526245,28z M14.479255,2C11.604237,2.0419998 9.3492229,2.8409996 7.9862146,4.3129997 6.0762026,6.3770008 6.2552037,9.0310001 6.2572036,9.0569992 7.5572119,17.502 5.0071962,19.676 4.482193,20.025L4.3461919,20.106C1.6501756,22.34,1.7811761,24.863,2.2631793,26L8.996995,26 10.996995,26 17.996995,26 19.996995,26 26.73033,26C27.214334,24.845,27.333333,22.334,24.652317,20.109L24.566317,20.059C23.987313,19.676 21.434298,17.502 22.743305,8.9939995 22.740306,8.9939995 22.902307,6.3630009 21.004294,4.3129997 19.641286,2.8409996 17.385272,2.0419998 14.479255,2z M14.479255,0C17.974277,0.049999237 20.728293,1.0709991 22.471304,2.9549999 25.029319,5.7159996 24.730318,9.2049999 24.727318,9.2399998 23.582311,16.692 25.618323,18.357 25.638324,18.374L25.855325,18.509C29.681348,21.628,29.241345,25.424,28.474341,26.996L28.004338,28 19.68173,28 19.66274,28.061111C18.890584,30.357538 16.866494,32 14.496995,32 12.127496,32 10.103405,30.357538 9.3312502,28.061111L9.3122594,28 0.99117184,28 0.51316833,26.981C-0.24783611,25.424,-0.68783855,21.628,3.1381845,18.509L3.4258566,18.328207 3.4251866,18.329 3.4261866,18.328 3.4258566,18.328207 3.4294982,18.3239C3.531518,18.21725 5.3649795,16.399875 4.2731915,9.2970009 4.2621918,9.2049999 3.9631896,5.7150002 6.5182052,2.9549999 8.2632162,1.0709991 11.015233,0.049999237 14.479255,0z" />
  </g>
</svg>

